<?xml version="1.0" encoding="utf-8"?>
<!-- Generator: Adobe Illustrator 24.3.0, SVG Export Plug-In . SVG Version: 6.00 Build 0)  -->
<svg version="1.1" id="Layer_1" xmlns="http://www.w3.org/2000/svg" xmlns:xlink="http://www.w3.org/1999/xlink" x="0px" y="0px"
	 viewBox="0 0 219.31 86.89" style="enable-background:new 0 0 219.31 86.89;" xml:space="preserve">
<style type="text/css">
	.st0{fill:#666666;}
</style>
<g id="UREoWN.tif">
	<g>
		<path class="st0" d="M50.77,27.18c1.92,0.46,3.19,1.6,3.64,3.55c0.57,2.44-1.14,4.97-3.62,5.38c-0.32,0.05-0.65,0.08-1.02,0.13
			c0.17,0.28,0.41,0.46,0.63,0.65c1.08,0.98,2.17,1.94,3.24,2.92c0.24,0.22,0.43,0.24,0.71,0.09c0.79-0.44,1.68-0.7,2.35-1.38
			c0.22-0.22,0.53-0.33,0.84-0.4c1.71-0.39,3.41-0.81,5.12-1.16c1.36-0.28,2.69,0.55,3.06,1.89c0.36,1.33,0.65,2.67,0.97,4.02
			c1.19,5.12,2.38,10.23,3.57,15.35c0.16,0.67,0.32,1.34,0.46,2.01c0.3,1.42-0.54,2.84-1.95,3.2c-1.68,0.43-3.38,0.82-5.07,1.17
			c-1.41,0.29-2.8-0.61-3.14-2.04c-0.76-3.19-1.5-6.38-2.25-9.57c-0.6-2.58-1.21-5.16-1.81-7.74c-0.13-0.54-0.13-0.54-0.63-0.29
			c-0.37,0.19-0.74,0.39-1.12,0.57c-0.97,0.48-1.88,0.36-2.75-0.25c-0.53-0.37-1.06-0.73-1.58-1.11c-0.25-0.19-0.34-0.13-0.42,0.15
			c-0.26,0.88-0.53,1.75-0.82,2.62c-0.1,0.31-0.05,0.49,0.22,0.68c1.21,0.86,2.39,1.76,3.6,2.62c1.24,0.88,1.73,2.06,1.49,3.55
			c-0.44,2.81-0.88,5.62-1.33,8.42c-0.22,1.36-1.35,2.38-2.62,2.43c-1.5,0.06-2.69-0.79-3.04-2.2c-0.19-0.75-0.02-1.49,0.08-2.23
			c0.21-1.68,0.44-3.35,0.66-5.03c0.03-0.23-0.09-0.36-0.27-0.47c-0.59-0.36-1.18-0.72-1.75-1.1c-0.26-0.17-0.37-0.16-0.44,0.17
			c-0.31,1.37-0.67,2.73-0.97,4.11c-0.21,0.95-0.69,1.65-1.54,2.15c-1.7,1.01-3.41,2.02-5.03,3.14c-1.93,1.33-4.36,0.45-4.89-1.73
			c0-0.39,0-0.78,0-1.17c0.23-0.96,0.81-1.63,1.65-2.15c1.16-0.72,2.28-1.5,3.43-2.23c0.38-0.23,0.51-0.53,0.57-0.94
			c0.25-1.79,0.53-3.58,0.77-5.37c0.05-0.37,0.19-0.74,0.03-1.15c-0.44-1.1-0.46-2.22-0.06-3.34c0.83-2.3,1.66-4.59,2.51-6.88
			c0.63-1.71,1.84-2.77,3.65-3.11c0.33-0.06,0.67-0.06,1.06-0.09c-0.13-0.15-0.22-0.25-0.3-0.35c-1.49-1.71-1.54-4.13-0.11-5.9
			c0.69-0.85,1.61-1.32,2.64-1.6C49.69,27.18,50.23,27.18,50.77,27.18z M49.17,61.32c-0.06,1.16,0.46,1.66,1.31,1.55
			c0.52-0.07,0.88-0.47,0.98-1.08c0.43-2.75,0.83-5.5,1.29-8.24c0.15-0.87-0.15-1.47-0.84-1.96c-1.5-1.07-2.98-2.17-4.47-3.25
			c-0.31-0.22-0.41-0.44-0.28-0.83c0.63-1.94,1.22-3.88,1.84-5.83c0.16-0.51,0.18-0.52,0.62-0.21c1.12,0.78,2.23,1.57,3.34,2.36
			c0.29,0.2,0.58,0.32,0.92,0.15c1.45-0.72,2.9-1.44,4.34-2.17c0.27-0.14,0.43-0.36,0.45-0.68c0.03-0.71-0.62-1.09-1.33-0.76
			c-1.11,0.53-2.22,1.06-3.32,1.61c-0.27,0.13-0.46,0.11-0.68-0.1c-1.56-1.42-3.14-2.83-4.69-4.26c-1.61-1.48-3.96-0.97-4.72,1.07
			c-0.86,2.3-1.7,4.61-2.52,6.92c-0.57,1.61,0.01,3.23,1.52,4.03c2.36,1.25,4.55,2.77,6.85,4.13c0.28,0.17,0.36,0.36,0.31,0.66
			c-0.11,0.78-0.21,1.57-0.31,2.36C49.56,58.38,49.35,59.97,49.17,61.32z M69.02,60.69c0.01-0.32-0.13-0.69-0.21-1.07
			c-0.17-0.76-0.17-0.76-0.95-0.59c-0.6,0.13-0.6,0.13-0.74-0.47c-0.23-1.01-0.23-1.02,0.76-1.3c0.24-0.07,0.34-0.17,0.27-0.45
			c-0.18-0.66-0.32-1.34-0.48-2.01c-0.18-0.78-0.18-0.78-0.96-0.62c-0.62,0.12-0.62,0.12-0.77-0.5c-0.24-0.99-0.24-1,0.76-1.29
			c0.27-0.08,0.36-0.21,0.29-0.49c-0.16-0.65-0.31-1.31-0.46-1.97c-0.21-0.88-0.21-0.88-1.11-0.7c-0.07,0.01-0.15,0.03-0.22,0.04
			c-0.1,0.02-0.19-0.01-0.22-0.11c-0.14-0.47-0.38-0.96-0.29-1.43c0.06-0.29,0.54-0.24,0.84-0.29c0.35-0.06,0.39-0.23,0.31-0.53
			c-0.15-0.59-0.28-1.19-0.42-1.79c-0.21-0.92-0.21-0.92-1.11-0.75c-0.09,0.02-0.18,0.03-0.27,0.04c-0.12,0.02-0.22,0-0.25-0.12
			c-0.13-0.47-0.37-0.97-0.26-1.43c0.07-0.3,0.58-0.2,0.88-0.31c0.03-0.01,0.06-0.01,0.09-0.02c0.22-0.04,0.3-0.15,0.24-0.38
			c-0.23-0.91-0.43-1.84-0.66-2.75c-0.16-0.6-0.63-0.87-1.24-0.74c-0.35,0.08-0.7,0.19-1.05,0.25c-0.41,0.07-0.52,0.27-0.38,0.66
			c0.09,0.24,0.12,0.49,0.18,0.74c1.24,5.32,2.49,10.63,3.74,15.95c0.41,1.73,0.82,3.47,1.23,5.2c0.15,0.63,0.15,0.63,0.76,0.5
			c0.35-0.08,0.7-0.15,1.04-0.26C68.82,61.55,69.02,61.26,69.02,60.69z M60.23,42.25c-0.44,0.75-1.15,1.1-1.87,1.45
			c-0.14,0.07-0.39,0.11-0.33,0.3c0.07,0.19,0.28,0.04,0.43,0.02c0.01,0,0.03-0.01,0.04-0.01c0.73-0.17,0.73-0.17,0.89,0.54
			c0.01,0.04,0.02,0.09,0.03,0.13c0.17,0.82,0.18,0.83-0.64,1.04c-0.29,0.08-0.35,0.19-0.28,0.48c0.19,0.75,0.38,1.51,0.53,2.27
			c0.08,0.42,0.26,0.5,0.65,0.4c0.74-0.19,0.74-0.18,0.91,0.56c0.01,0.06,0.02,0.12,0.04,0.18c0.18,0.87,0.29,0.78-0.62,0.98
			c-0.36,0.08-0.43,0.21-0.34,0.56c0.21,0.8,0.39,1.6,0.56,2.41c0.07,0.35,0.21,0.42,0.55,0.34c0.74-0.19,0.74-0.17,0.92,0.59
			c0.01,0.03,0.02,0.06,0.02,0.09c0.19,0.9,0.28,0.82-0.58,1.01c-0.29,0.06-0.39,0.19-0.31,0.51c0.17,0.63,0.3,1.28,0.45,1.92
			c0.19,0.79,0.2,0.81,1,0.63c0.3-0.07,0.46-0.03,0.49,0.3c0.01,0.12,0.05,0.23,0.08,0.35c0.2,0.9,0.2,0.91-0.68,1.17
			c-0.23,0.07-0.32,0.15-0.24,0.41c0.12,0.42,0.2,0.85,0.31,1.26c0.17,0.58,0.54,0.83,1.15,0.76c0.31-0.04,0.62-0.12,0.92-0.19
			c0.67-0.15,0.66-0.16,0.5-0.82c-1.25-5.35-2.5-10.7-3.75-16.04C60.79,44.62,60.51,43.44,60.23,42.25z M36.26,62.06
			c0.27,0.03,0.54-0.1,0.8-0.26c1.78-1.1,3.57-2.2,5.36-3.29c0.34-0.21,0.54-0.49,0.63-0.88c0.37-1.6,0.75-3.2,1.16-4.8
			c0.08-0.31,0-0.47-0.26-0.62c-0.81-0.46-1.61-0.92-2.41-1.39c-0.24-0.14-0.25,0.02-0.27,0.18c-0.24,1.7-0.49,3.4-0.72,5.1
			c-0.04,0.33-0.17,0.55-0.45,0.73c-0.75,0.47-1.48,0.96-2.22,1.45c-0.8,0.53-1.61,1.04-2.39,1.6c-0.46,0.32-0.58,0.9-0.38,1.41
			C35.29,61.78,35.7,62.06,36.26,62.06z M50.01,28.9c-1.57-0.01-2.81,1.22-2.81,2.77c0,1.53,1.24,2.75,2.78,2.77
			c1.34,0.02,2.77-0.96,2.81-2.79C52.82,30.12,51.55,28.9,50.01,28.9z"/>
	</g>
</g>
<g id="_x39_I9pKo.tif">
	<g>
		<path class="st0" d="M119.2,34.68c1.67,0.55,2.47,1.51,2.52,3.03c0.04,1.32-0.73,2.28-2.03,2.49c-2.84,0.44-5.68,0.87-8.53,1.28
			c-1.65,0.24-1.84,0.58-0.96,2.03c2.48,4.12,4.75,8.35,7.13,12.52c0.14,0.24,0.46,0.52,0.25,0.79c-0.23,0.3-0.61,0.1-0.9,0
			c-0.78-0.29-1.55-0.61-2.32-0.93c-2.23-0.94-4.39-0.86-6.46,0.47c-1.33,0.85-2.8,0.76-4.05,0.08c-2.25-1.23-4.49-1.42-6.82-0.46
			c-1.46,0.6-2.94,0.77-4.49,0.67c-0.21-0.01-0.44-0.01-0.64-0.07c-0.21-0.07-0.56,0.01-0.59-0.3c-0.02-0.24,0.28-0.29,0.46-0.39
			c1.77-0.96,3.55-1.92,5.32-2.87c2.42-1.29,4.84-2.58,7.25-3.87c1.22-0.65,1.29-0.96,0.62-2.13c-1-1.75-1.98-3.51-2.97-5.26
			c-0.01-0.02-0.03-0.05-0.04-0.07c-1.36-2.62-0.64-4.14,2.28-4.64c4.58-0.78,9.17-1.51,13.75-2.26c0.13-0.02,0.26-0.07,0.39-0.1
			C118.66,34.68,118.93,34.68,119.2,34.68z"/>
		<path class="st0" d="M83.04,58.53c1.57-0.74,3.2-0.66,4.81-0.27c1.57,0.38,3.12,0.83,4.66,1.29c0.78,0.24,1.52,0.22,2.29-0.05
			c1.07-0.37,2.13-0.74,3.22-1.06c1.92-0.57,3.82-0.47,5.5,0.66c1.51,1.01,2.85,1.14,4.42,0.04c2.12-1.49,4.49-1.54,6.73-0.33
			c1.94,1.05,3.56,0.97,5.33-0.37c2.22-1.67,4.58-1.06,6.87,0c0.3,0.14,0.45,0.35,0.44,0.69c-0.01,1.1-0.01,2.2,0,3.3
			c0.01,0.57-0.24,0.64-0.7,0.45c-0.87-0.36-1.75-0.7-2.61-1.07c-0.68-0.28-1.3-0.23-1.91,0.2c-0.42,0.29-0.87,0.54-1.3,0.81
			c-1.88,1.21-3.86,1.4-5.93,0.58c-0.62-0.25-1.25-0.5-1.86-0.79c-1.11-0.52-2.16-0.51-3.2,0.22c-0.46,0.32-0.98,0.56-1.48,0.82
			c-1.59,0.82-3.2,0.81-4.82,0.09c-0.59-0.26-1.2-0.51-1.73-0.87c-1.05-0.7-2.11-0.65-3.23-0.25c-0.81,0.29-1.62,0.58-2.43,0.86
			c-1.49,0.52-2.99,0.59-4.52,0.14c-1.31-0.39-2.64-0.76-3.96-1.12c-1.64-0.45-3.2-0.3-4.63,0.68
			C83.04,61.64,83.04,60.09,83.04,58.53z"/>
		<path class="st0" d="M115.08,48.54c-0.04-2.68,2.22-5,4.93-5.05c2.95-0.05,5.27,2.18,5.32,5.1c0.05,2.68-2.34,5.07-5.1,5.12
			C117.41,53.75,115.12,51.46,115.08,48.54z"/>
	</g>
</g>
<g id="LqXdp2.tif">
	<g>
		<path class="st0" d="M157.45,28.09c1.68,1.99,3.29,4.05,4.92,6.08c0.48,0.61,0.3,1.29-0.44,1.69c-1.62,0.89-3.25,1.76-4.88,2.63
			c-0.52,0.28-1.04,0.56-1.56,0.84c-0.41,0.22-0.82,0.2-1.19-0.08c-0.38-0.29-0.46-0.7-0.38-1.14c0.15-0.8,0.33-1.6,0.5-2.4
			c0.05-0.23,0.09-0.36-0.27-0.3c-5.21,0.81-8.92,3.62-11.14,8.39c-0.83,1.78-1.2,3.68-1.19,5.63c0.01,3.39,1.1,6.42,3.26,9.04
			c1.77,2.15,4.02,3.66,6.68,4.49c2.19,0.69,4.43,0.82,6.7,0.42c2.97-0.52,5.5-1.87,7.61-3.99c2.07-2.08,3.39-4.6,3.88-7.5
			c0.53-3.12,0.1-6.12-1.36-8.95c-0.42-0.82-0.93-1.56-1.48-2.29c-0.97-1.29-0.4-2.88,1.17-3.18c0.7-0.13,1.3,0.14,1.74,0.69
			c1.79,2.23,2.98,4.74,3.59,7.54c0.35,1.62,0.48,3.25,0.37,4.9c-0.22,3.25-1.22,6.25-3.07,8.94c-2.55,3.7-6,6.15-10.33,7.33
			c-1.03,0.28-2.07,0.5-3.15,0.45c-0.65-0.03-1.31-0.04-1.97,0c-1.89,0.11-3.7-0.25-5.47-0.89c-3.75-1.36-6.75-3.7-8.98-7.01
			c-1.49-2.2-2.42-4.63-2.82-7.25c-0.28-1.85-0.27-3.71,0.03-5.56c0.67-4.13,2.57-7.59,5.64-10.42c2.45-2.26,5.32-3.72,8.6-4.38
			c0.84-0.17,1.69-0.32,2.55-0.31c0.2,0,0.28-0.07,0.32-0.28c0.13-0.73,0.3-1.45,0.44-2.18c0.07-0.38,0.23-0.7,0.54-0.94
			C156.68,28.09,157.06,28.09,157.45,28.09z"/>
		<path class="st0" d="M164.17,47.06c0,0.98,0.01,1.95,0,2.93c0,0.23,0.03,0.36,0.31,0.33c0.9-0.08,1.22,0.38,1.16,1.2
			c-0.02,0.27,0.03,0.54-0.04,0.8c-0.12,0.41-0.36,0.6-0.77,0.61c-0.09,0-0.18,0.01-0.27,0c-0.3-0.05-0.4,0.06-0.39,0.37
			c0.03,0.54,0.01,1.08,0.01,1.62c-0.01,0.57-0.27,0.85-0.83,0.88c-0.49,0.03-0.98,0.04-1.46,0.02c-0.61-0.02-0.87-0.31-0.88-0.92
			c0-0.53-0.02-1.05,0.01-1.58c0.01-0.3-0.08-0.39-0.39-0.39c-1.31,0.02-2.62-0.02-3.93,0.02c-0.76,0.02-1.03-0.32-1.07-1.07
			c-0.04-0.75,0.17-1.38,0.58-2.01c1.27-1.97,2.5-3.97,3.72-5.98c0.28-0.45,0.61-0.68,1.15-0.65c0.68,0.04,1.36,0,2.04,0
			c0.75-0.01,1.05,0.29,1.05,1.04C164.17,45.21,164.17,46.13,164.17,47.06z M158.97,50.32c0.65,0,1.23,0,1.81,0
			c0.14,0,0.22-0.03,0.22-0.19c0-1.09,0-2.17,0-3.26c-0.02-0.01-0.04-0.01-0.06-0.02C160.29,47.98,159.65,49.12,158.97,50.32z"/>
		<path class="st0" d="M151.27,53.01c0.99,0,1.86,0.02,2.73-0.01c1.15-0.04,1.49,0.14,1.44,1.44c-0.01,0.17,0.01,0.33,0,0.5
			c-0.04,0.59-0.36,0.89-0.93,0.89c-2.06,0-4.12,0.01-6.17,0.01c-0.37,0-0.75-0.01-1.12-0.02c-0.58-0.02-0.82-0.27-0.88-0.85
			c-0.08-0.77,0.12-1.36,0.74-1.9c1.31-1.13,2.63-2.26,3.75-3.6c0.47-0.56,0.89-1.16,1-1.92c0.16-1.1-0.54-1.63-1.36-1.71
			c-0.68-0.07-1.33,0.1-1.93,0.41c-0.16,0.08-0.32,0.17-0.48,0.23c-0.36,0.13-0.7,0.02-0.9-0.31c-0.24-0.38-0.37-0.82-0.5-1.24
			c-0.1-0.35,0.03-0.68,0.35-0.86c2.03-1.1,4.13-1.48,6.28-0.39c1.43,0.72,2.03,2.38,1.88,3.79c-0.17,1.59-1.04,2.78-2.1,3.88
			C152.54,51.92,151.97,52.45,151.27,53.01z"/>
	</g>
</g>
</svg>
